<svg width="358" height="358" viewBox="0 0 358 358" fill="none" xmlns="http://www.w3.org/2000/svg">
<rect x="9" y="9" width="340" height="340" rx="170" fill="#F8F8F8" stroke="url(#paint0_radial_60_45)" stroke-width="18"/>
<rect x="178" y="315" width="4" height="14" rx="2" fill="#B7B7B7"/>
<rect x="178" y="28" width="4" height="14" rx="2" fill="#B7B7B7"/>
<rect x="316" y="181" width="4" height="14" rx="2" transform="rotate(-90 316 181)" fill="#B7B7B7"/>
<rect x="29" y="181" width="4" height="14" rx="2" transform="rotate(-90 29 181)" fill="#B7B7B7"/>
<rect x="213.383" y="311.142" width="4.22456" height="13.7444" rx="2.11228" transform="rotate(-15 213.383 311.142)" fill="#B7B7B7"/>
<rect x="139.035" y="33.6748" width="4.22456" height="13.7288" rx="2.11228" transform="rotate(-15 139.035 33.6748)" fill="#B7B7B7"/>
<rect x="246.578" y="297.992" width="4.22456" height="13.7417" rx="2.11228" transform="rotate(-30 246.578 297.992)" fill="#B7B7B7"/>
<rect x="102.949" y="49.2192" width="4.22456" height="13.7407" rx="2.11228" transform="rotate(-30 102.949 49.2192)" fill="#B7B7B7"/>
<rect x="275.216" y="276.675" width="4.22456" height="13.7712" rx="2.11228" transform="rotate(-45 275.216 276.675)" fill="#B7B7B7"/>
<rect x="72.1149" y="73.5737" width="4.22456" height="13.79" rx="2.11228" transform="rotate(-45 72.1149 73.5737)" fill="#B7B7B7"/>
<rect x="297.396" y="248.701" width="4.22456" height="13.756" rx="2.11228" transform="rotate(-60 297.396 248.701)" fill="#B7B7B7"/>
<rect x="48.6351" y="105.079" width="4.22456" height="13.9014" rx="2.11228" transform="rotate(-60 48.6351 105.079)" fill="#B7B7B7"/>
<rect x="311.501" y="215.915" width="4.22456" height="13.8235" rx="2.11228" transform="rotate(-75 311.501 215.915)" fill="#B7B7B7"/>
<rect x="34.1095" y="141.588" width="4.22456" height="13.821" rx="2.11228" transform="rotate(-75 34.1095 141.588)" fill="#B7B7B7"/>
<rect x="312.581" y="145.168" width="4.22456" height="13.8367" rx="2.11228" transform="rotate(-105 312.581 145.168)" fill="#B7B7B7"/>
<rect x="35.2029" y="219.492" width="4.22456" height="13.7692" rx="2.11228" transform="rotate(-105 35.2029 219.492)" fill="#B7B7B7"/>
<rect x="299.435" y="111.999" width="4.22456" height="13.8403" rx="2.11228" transform="rotate(-120 299.435 111.999)" fill="#B7B7B7"/>
<rect x="50.7474" y="255.579" width="4.22456" height="13.8436" rx="2.11228" transform="rotate(-120 50.7474 255.579)" fill="#B7B7B7"/>
<rect x="278.223" y="83.291" width="4.22456" height="13.7433" rx="2.11228" transform="rotate(-135 278.223 83.291)" fill="#B7B7B7"/>
<rect x="75.1021" y="286.413" width="4.22456" height="13.7652" rx="2.11228" transform="rotate(-135 75.1021 286.413)" fill="#B7B7B7"/>
<rect x="250.195" y="61.1919" width="4.22456" height="13.8255" rx="2.11228" transform="rotate(-150 250.195 61.1919)" fill="#B7B7B7"/>
<rect x="106.607" y="309.893" width="4.22456" height="13.8905" rx="2.11228" transform="rotate(-150 106.607 309.893)" fill="#B7B7B7"/>
<rect x="143.116" y="324.418" width="4.22456" height="13.7649" rx="2.11228" transform="rotate(-165 143.116 324.418)" fill="#B7B7B7"/>
<rect x="217.463" y="46.9517" width="4.22456" height="13.7456" rx="2.11228" transform="rotate(-165 217.463 46.9517)" fill="#B7B7B7"/>
<defs>
<radialGradient id="paint0_radial_60_45" cx="0" cy="0" r="1" gradientUnits="userSpaceOnUse" gradientTransform="translate(188 167) rotate(-106.504) scale(197.122 252.353)">
<stop offset="0.273235" stop-color="#00BDD7"/>
<stop offset="1" stop-color="#16B639" stop-opacity="0.93"/>
</radialGradient>
</defs>
</svg>
